<svg width="36" height="36" viewBox="0 0 36 36" fill="none" xmlns="http://www.w3.org/2000/svg">
<path fill-rule="evenodd" clip-rule="evenodd" d="M30.6034 20.3702C31.1399 20.6552 31.5538 21.1052 31.845 21.5552C32.4122 22.4852 32.3662 23.6252 31.8144 24.6302L30.7413 26.4302C30.1741 27.3902 29.1164 27.9902 28.028 27.9902C27.4915 27.9902 26.8937 27.8402 26.4031 27.5402C26.0046 27.2852 25.5447 27.1952 25.0541 27.1952C23.5365 27.1952 22.2642 28.4402 22.2182 29.9252C22.2182 31.6502 20.8079 33.0002 19.045 33.0002H16.9602C15.182 33.0002 13.7717 31.6502 13.7717 29.9252C13.7411 28.4402 12.4687 27.1952 10.9511 27.1952C10.4453 27.1952 9.98538 27.2852 9.60214 27.5402C9.1116 27.8402 8.49843 27.9902 7.97723 27.9902C6.87352 27.9902 5.81579 27.3902 5.2486 26.4302L4.19088 24.6302C3.62369 23.6552 3.59303 22.4852 4.16022 21.5552C4.40549 21.1052 4.86537 20.6552 5.38657 20.3702C5.81579 20.1602 6.09172 19.8152 6.35232 19.4102C7.11879 18.1202 6.6589 16.4252 5.35591 15.6602C3.8383 14.8052 3.34776 12.9002 4.22154 11.4152L5.2486 9.64515C6.13771 8.16015 8.03855 7.63515 9.57148 8.50515C10.9051 9.22515 12.6374 8.74515 13.4192 7.47015C13.6644 7.05015 13.8024 6.60015 13.7717 6.15015C13.7411 5.56515 13.9097 5.01015 14.2009 4.56015C14.7681 3.63015 15.7952 3.03015 16.9142 3.00015H19.0757C20.2101 3.00015 21.2371 3.63015 21.8043 4.56015C22.0802 5.01015 22.2642 5.56515 22.2182 6.15015C22.1875 6.60015 22.3255 7.05015 22.5708 7.47015C23.3526 8.74515 25.0848 9.22515 26.4338 8.50515C27.9514 7.63515 29.8676 8.16015 30.7413 9.64515L31.7684 11.4152C32.6575 12.9002 32.167 14.8052 30.634 15.6602C29.331 16.4252 28.8711 18.1202 29.6529 19.4102C29.8982 19.8152 30.1741 20.1602 30.6034 20.3702ZM13.6644 18.0152C13.6644 20.3702 15.6113 22.2452 18.018 22.2452C20.4247 22.2452 22.3255 20.3702 22.3255 18.0152C22.3255 15.6602 20.4247 13.7702 18.018 13.7702C15.6113 13.7702 13.6644 15.6602 13.6644 18.0152Z" fill="#1DAAE2"/>
</svg>
