<svg width="204" height="197" viewBox="0 0 204 197" fill="none" xmlns="http://www.w3.org/2000/svg">
<g clip-path="url(#clip0_102_237)">
<path d="M80.9322 175.834C81.9582 171.643 82.9402 167.442 84.0414 163.272C84.3214 162.21 84.2504 161.293 83.914 160.296C81.8976 154.335 79.8603 148.38 77.9421 142.39C77.5137 141.05 76.751 140.394 75.5349 139.83C62.1388 133.607 52.2323 124.039 47.2634 109.872C45.8676 105.893 45.9114 101.694 45.6189 97.5219C45.1571 90.9423 46.8371 85.1673 49.7792 79.2879C51.921 75.0053 54.1798 72.934 58.9815 73.7533C61.0481 74.1065 63.2254 73.8703 65.3463 73.7909C66.6209 73.7429 66.903 74.2696 66.8152 75.5905C66.6585 77.9983 66.6502 80.4144 66.8215 82.8222C66.9051 83.9927 66.5122 84.5863 65.5406 85.0252C64.0424 85.7024 62.6132 86.5363 61.1129 87.2073C60.3105 87.5668 59.8884 88.4467 60.1162 89.2932C61.1233 93.0365 62.0114 96.8113 62.9078 100.582C63.1355 101.537 63.6391 102.066 64.594 102.352C73.2552 104.958 79.6116 110.359 83.774 118.356C84.4113 119.581 85.0569 119.583 86.9647 119.027C96.8002 116.153 107.246 116.228 117.096 119.052C118.935 119.579 119.572 119.566 120.201 118.358C124.363 110.361 130.711 104.952 139.385 102.369C140.501 102.036 140.979 101.363 141.155 100.122C141.652 96.5772 142.505 93.1013 143.731 89.7384C144.295 88.1917 143.947 87.4811 142.785 87.1843C137.755 85.8968 136.524 82.5923 137.08 77.737C137.525 73.8515 137.17 73.8097 141.04 73.8097C143.972 73.8097 146.903 73.8474 149.835 73.7909C150.85 73.7721 151.423 74.1044 151.874 75.0345C153.826 79.0517 155.859 83.0312 157.84 87.0359C158.074 87.5082 158.222 88.0224 158.268 88.547C160.469 113.275 150.269 128.892 128.659 139.756C127.23 140.475 126.367 141.266 125.878 142.798C124.012 148.654 122.029 154.473 120.065 160.296C119.729 161.293 119.658 162.21 119.938 163.272C121.039 167.442 122.021 171.643 123.047 175.834C109.007 175.834 94.9676 175.834 80.928 175.834H80.9322Z" fill="#1DAAE2"/>
<path d="M174.03 29.9678C179.293 34.6935 183.539 40.272 187.369 46.166C199.207 64.3917 204.859 84.4273 203.893 106.112C202.744 131.923 193.078 154.245 175.244 172.999C174.379 173.911 173.917 173.948 173.031 173.043C168.929 168.857 164.804 164.689 160.577 160.63C159.359 159.462 159.482 158.858 160.579 157.698C171.211 146.491 178.292 133.34 181.188 118.153C186.316 91.2682 179.548 67.577 161.451 47.0878C160.728 46.2705 160.042 45.4199 159.338 44.5859C164.236 39.7118 169.132 34.8398 174.03 29.9678Z" fill="#F48C99"/>
<path d="M44.4132 44.6089C43.1052 47.1901 40.7607 48.9145 39.0097 51.1383C28.8127 64.0781 22.7405 78.6524 21.4575 95.1181C19.6104 118.797 26.8256 139.395 42.7353 156.979C44.781 159.238 44.8019 159.219 42.6371 161.387C38.7527 165.274 34.841 169.137 30.9984 173.064C30.1291 173.952 29.6381 173.982 28.7479 173.05C15.9641 159.688 6.95609 144.146 2.92118 126.098C-5.01908 90.5806 3.22835 59.1413 27.7199 32.0892C28.5494 31.1737 29.4375 30.3126 30.2984 29.4243C30.3026 30.3544 31.0569 30.7892 31.6043 31.3388C35.236 34.9944 38.8968 38.6228 42.5201 42.2868C43.218 42.9932 44.1562 43.5325 44.4132 44.6068V44.6089Z" fill="#FDDF4A"/>
<path d="M44.4132 44.6089C44.1562 43.5325 43.218 42.9953 42.5201 42.2888C38.8989 38.6228 35.2381 34.9965 31.6043 31.3409C31.059 30.7912 30.3046 30.3565 30.2984 29.4264C46.7911 13.2428 66.4705 3.46111 89.4178 0.792059C121.338 -2.92204 149.083 6.46249 172.607 28.3437C173.131 28.8307 173.804 29.2111 174.034 29.9677C169.136 34.8397 164.238 39.7138 159.342 44.5859C155.454 41.388 151.772 37.9477 147.597 35.0864C116.534 13.7883 74.2812 17.0049 46.8246 42.7946C46.0953 43.4781 45.5186 44.4061 44.4174 44.6109L44.4132 44.6089Z" fill="#9CD3A8"/>
<path d="M158.264 182.873C158.27 186.901 158.226 190.93 158.31 194.956C158.341 196.429 157.957 197.002 156.361 197C120.115 196.96 83.8701 196.96 47.6249 197C46.0285 197 45.644 196.429 45.6753 194.956C45.7589 190.93 45.715 186.901 45.7213 182.873C83.2349 182.873 120.748 182.873 158.264 182.873Z" fill="#E9E9E4"/>
<path d="M158.264 182.873C120.751 182.873 83.2349 182.873 45.7213 182.873C45.715 181.266 45.807 179.652 45.6753 178.055C45.5332 176.352 46.0828 175.804 47.8568 175.817C58.3714 175.898 68.886 175.857 79.4005 175.857C79.9125 175.857 80.4223 175.842 80.9343 175.834C94.9739 175.834 109.014 175.834 123.053 175.834C134.007 175.842 144.96 175.9 155.911 175.808C157.884 175.792 158.511 176.362 158.314 178.275C158.158 179.792 158.27 181.339 158.264 182.873Z" fill="#CDCCC7"/>
<path d="M116.062 94.9093C116.066 102.703 109.745 109.013 101.949 108.999C94.1673 108.984 87.8883 102.641 87.9217 94.8257C87.953 87.1466 94.2405 80.8722 101.924 80.8513C109.747 80.8283 116.057 87.1027 116.062 94.9093Z" fill="#1DAAE2"/>
</g>
<defs>
<clipPath id="clip0_102_237">
<rect width="204" height="197" fill="white"/>
</clipPath>
</defs>
</svg>
